<svg xmlns="http://www.w3.org/2000/svg" viewBox="0 0 829 583"><defs><style>.cls-1{isolation:isolate;}.cls-2{fill:#2d2e32;}.cls-3{fill:#4ca9ff;}.cls-4{fill:#04377d;}.cls-5{fill:#fff;}.cls-6{fill:#0084ff;}.cls-7{fill:#ff9d8a;}.cls-8{fill:#1f1f1f;}.cls-16,.cls-9{mix-blend-mode:multiply;}.cls-10{fill:#59afff;}.cls-11{fill:#2a5590;}.cls-12{fill:#f5f7fa;}.cls-13{fill:#d4dde9;}.cls-14{fill:#43699d;}.cls-15{fill:#6987b1;}.cls-16{fill:#b4c3d8;}.cls-17{fill:#5c7daa;}.cls-18{fill:#8ea5c4;}.cls-19{fill:#cce6ff;}.cls-20{fill:#54adff;}</style></defs><title>Asset 1</title><g class="cls-1"><g id="Layer_2" data-name="Layer 2"><g id="Layer_1-2" data-name="Layer 1"><path class="cls-2" d="M828.93,505.57c-.41,27.2-35.18,54.14-64.35,77.43H0V83.5c25.75-7.12,56.06-10.74,91.78-9.61,256.4,8.12,282,25.71,290.06-27.07S460.36-10,548.5,14.34,678.3,101,678.3,140.19,572.53,193,603,289.05c25,78.84,81.74,94.79,142.62,86.61C804,367.81,830.53,401.37,828.93,505.57Z"/><path class="cls-3" d="M196.59,553.69c-3.19-4.37-50-126.56,2.13-238.58s183.06-98.92,235.21-55.28,77.69,100.38,83,160-29.8,152.75-29.8,152.75Z"/><rect class="cls-3" x="496.87" y="356.78" width="73.64" height="43.52" rx="5" ry="5"/><polygon class="cls-3" points="533.7 417.31 543.23 394.72 524.16 394.72 533.7 417.31"/><polygon class="cls-4" points="533.47 371.07 550.69 371.07 550.69 373.59 559.13 368.72 550.69 363.85 550.69 366.37 533.47 366.37 533.47 371.07"/><polygon class="cls-5" points="559.13 380.97 541.91 380.97 541.91 378.45 533.47 383.32 541.91 388.19 541.91 385.67 559.13 385.67 559.13 380.97"/><path class="cls-4" d="M522.9,385.4l-.82.3a25.89,25.89,0,0,1-3.88-6.1,21.82,21.82,0,0,1-1.38-7.05l.6-.25-3.64-8.72a7.14,7.14,0,0,0-1.77,2c-2.06,3.48-1.85,8.82.22,14s4.29,9.88,8.33,12.81a8,8,0,0,0,6,1.78Z"/><path class="cls-4" d="M525.51,384.37l-1.13.42,3.73,8.92a6.49,6.49,0,0,0,1.12-.49,2.15,2.15,0,0,0,1-2.7l-1.94-4.91A2.18,2.18,0,0,0,525.51,384.37Z"/><path class="cls-4" d="M516.63,362.05a8.66,8.66,0,0,0-1.46.69l3.72,8.9,1.25-.52a2.17,2.17,0,0,0,1.18-2.79l-2-5A2.17,2.17,0,0,0,516.63,362.05Z"/><path class="cls-6" d="M179.2,543V442.61s-1.12-27.06,13.11-34.87,74.2-3.63,74.2-3.63V543Z"/><path class="cls-7" d="M285.24,310.1s-3.62,30.41-5,32.92l-1.39,2.51-7,4.74s13.39,19,29.85,22,15.06-6.69,15.06-6.69l-2.51-5.3,3.35-29S287.75,317.64,285.24,310.1Z"/><path class="cls-5" d="M263.21,352.78,274.08,348s7,11.44,23.16,18.13,16.46,2.79,17.29,0a10.54,10.54,0,0,0-.28-5.85l1.2-9.77,6.47,2.16,22.46,181.67-57.74,2.79Z"/><path class="cls-8" d="M316.49,350.74s3.9,9,7.53,30.22,7,56.9,7.81,81.45S333.22,543,333.22,543H406c.84,0,5.86-27.62,5.86-27.62s-31.8-27.24-33.48-31.7c-1.11-3-.56-58.12-5.3-83.5s-10.88-30.5-23.71-36.83C336.14,356.85,316.49,350.74,316.49,350.74Z"/><path class="cls-8" d="M354.42,511.07a.68.68,0,0,1-.67-.68c0-2-.36-30.33-.7-57.73s-.7-55.75-.7-57.75a.68.68,0,0,1,.68-.68.67.67,0,0,1,.67.68c0,2,.36,30.33.7,57.73s.7,55.75.7,57.75A.69.69,0,0,1,354.42,511.07Z"/><path class="cls-8" d="M209.37,504.25,208.81,543h84.8s3.63-32.92,2.23-36S209.37,504.25,209.37,504.25Z"/><g class="cls-9"><path class="cls-8" d="M303.75,342.18a44.41,44.41,0,0,0,11.86,6.38l2-17.26s-22.42-10.27-30-17.91C289.16,322.08,293.07,333.58,303.75,342.18Z"/></g><path class="cls-7" d="M343.82,253.48a60.37,60.37,0,0,1,7,22.31c1.11,12.28,0,43.8-10.05,57.19s-31,9.48-40.44,1.39c-8.71-7.42-17.3-15.62-19.53-31.8s4.74-46.86,24.55-53.28S343.82,253.48,343.82,253.48Z"/><path class="cls-7" d="M369,525.49s-1,0-2.48,0h-1.15c-1.44,0-3.19-.08-5-.14l-1.19,0c-1.75,0-3.25.18-4.65.1h0a10.21,10.21,0,0,0-1.08,0,3.46,3.46,0,0,1-.44,0,6.69,6.69,0,0,1-1.85-.73c-1.13-.51-16.46-3.93-28.93-3.85s-23.64.9-25.46-.62S293.82,503,304.46,502l13.08,5s29.86-3.55,40.81,4.53S369,525.49,369,525.49Z"/><path class="cls-8" d="M354.52,525.36a10.21,10.21,0,0,0-1.08,0,12.55,12.55,0,0,0-1.14-1.54c-3.37-3.44-11.52-5.66-14.47-6.38a.5.5,0,0,1-.38-.6.53.53,0,0,1,.62-.38c4.3,1,13.43,3.69,16,8C354.17,524.67,354.39,525.09,354.52,525.36Z"/><path class="cls-8" d="M360.4,525.3l-1.18,0c-3.68-6.71-9.71-8.64-17.15-11l-.44-.15a.51.51,0,1,1,.32-1l.43.14C350.25,515.79,356.58,517.82,360.4,525.3Z"/><path class="cls-8" d="M366.51,525.45h-1.15c-2.23-4.7-9.62-12.55-19.39-14.38a.5.5,0,1,1,.17-1C356.21,512,364.33,520.18,366.51,525.45Z"/><path class="cls-8" d="M287.47,288.76s6.14-2.92,10.47-11.15A31.75,31.75,0,0,0,301.7,262s7.81-1.26,19.53,2.23,25.66,8.23,37.38,1.53,11.71-17.43,6-21.9c-6.4-5-19.1-1.95-19.1-1.95s4.88-4.74,2.23-7.53-12.28.84-12.28.84-11.71-9.35-33.89-8.23-32.78,16.59-34,33.89,5,34.59,5,34.59Z"/><g class="cls-9"><path class="cls-8" d="M332.47,293c-1.26,3.1-1.23,6.69-1.55,10-.24,2.56-.71,5.54,1.63,7.27,1.12.82,6.42,3.05,3.69,4.85-1,.69-2.78.5-4,.44-.81,0-1.63-.07-2.45-.13s-1.73-.33-2.6-.33a.51.51,0,0,0-.26.94,11.1,11.1,0,0,0,5.12,1.22,7.7,7.7,0,0,0,4.23-.75,3,3,0,0,0,1.93-2.17,3.43,3.43,0,0,0-1.66-3c-1.06-.79-2.35-1.15-3.42-1.91-1.47-1.06-1.35-2.84-1.25-4.49.25-4,1.16-7.86,1.52-11.81.05-.61-.78-.61-1-.13Z"/></g><path class="cls-8" d="M343.87,302.23c-.42,2.35-2.13,4-3.82,3.72s-2.73-2.45-2.32-4.8,2.13-4,3.82-3.72S344.28,299.88,343.87,302.23Z"/><path class="cls-8" d="M322.52,300.37c-.37,2.54-2.16,4.37-4,4.1s-3-2.55-2.62-5.09,2.16-4.37,4-4.1S322.9,297.83,322.52,300.37Z"/><path class="cls-8" d="M338.9,292.54c1.3.22,2.62,0,3.93.09.32,0,.63.07.95.1s-.42-.07-.11,0l.2,0a3.86,3.86,0,0,1,.49.1c.28.07.55.17.83.23a3.15,3.15,0,0,0,.8.11l.43-.06-.27.05a2.69,2.69,0,0,0,.53-.06,1.45,1.45,0,0,0,1-1.76,1.69,1.69,0,0,0-.28-.57l-.17-.22.16.18-.18-.23a.76.76,0,0,0-.3-.29,2.34,2.34,0,0,0-.31-.24,3.76,3.76,0,0,0-1.21-.49,10.26,10.26,0,0,0-2.4-.31,17.08,17.08,0,0,0-2.37.19,4.63,4.63,0,0,0-2,.75,1.36,1.36,0,0,0-.62,1.31,1.28,1.28,0,0,0,.94,1.1Z"/><path class="cls-8" d="M324,288.81a4.63,4.63,0,0,0-.54-.28c-.16-.08-.59-.3-.27-.12l-.36-.19a7.86,7.86,0,0,0-1.68-.61,11.23,11.23,0,0,0-3.92-.27,9.28,9.28,0,0,0-3.87,1.21,3.36,3.36,0,0,0-.49.35c-.09.12-.19.24-.28.37l.08-.13a1.36,1.36,0,0,0-.58,1.14,1.13,1.13,0,0,0,.6,1,1.71,1.71,0,0,0,1.35,0h-.7a2.65,2.65,0,0,0,1.05,0s.37-.1.14-.05.38,0,.44-.05.5-.06.06,0l.24,0,.63-.07c.92-.07,1.84-.11,2.76-.14s1.73,0,2.59,0l1.1,0c.2,0,.11,0,0,0l.23.06.45.15a1.3,1.3,0,0,0,1-2.37Z"/><path class="cls-8" d="M330.64,327.59a12.62,12.62,0,0,1,6.31-5.68c-2.34-.24-13.38-1.26-16.16.32-3.12,1.77.57,8.89,7,9.24a8.21,8.21,0,0,0,1.88-.11A9.28,9.28,0,0,1,330.64,327.59Z"/><path class="cls-8" d="M279.66,312.61s1.12,4.33,7.54,9.35,15.71,8.69,15.71,8.69l.74-3.25s-9.62-4.18-14.08-8.79-5-7.11-5-7.11Z"/><path class="cls-8" d="M304.77,325a8.06,8.06,0,0,1,8.4,6.49c.36,2.64-2.12,5.6-7.92,3C298,331.25,299.61,325.23,304.77,325Z"/><path class="cls-8" d="M283.71,280.68s2.23-16,13-26.92c20.5-20.79,37.94-19.53,37.94-19.53s-.14-2.93-6.7-5.16c-6.15-2.1-8.92-1-8.92-1s-16.88,1.4-31.11,17.16-15.76,35.84-15.76,35.84Z"/><path class="cls-5" d="M282.17,278.72c-13.43-2.27-20.92,8.23-21.47,18.83s7.14,18.66,17.43,17.85C301.28,313.59,298.63,281.51,282.17,278.72Z"/><path class="cls-8" d="M275.49,305.1a9.15,9.15,0,0,1-8.26-4.92,10.22,10.22,0,0,1,.39-10.54.51.51,0,0,1,.71-.13.5.5,0,0,1,.13.7,9.18,9.18,0,0,0-.34,9.49,8.11,8.11,0,0,0,7.62,4.39,8.86,8.86,0,0,0,7.33-4,11.14,11.14,0,0,0,1.1-9.9c-1.2-3.18-4.51-5.34-7.52-5a.5.5,0,1,1-.13-1c3.52-.47,7.21,1.93,8.6,5.59a12.23,12.23,0,0,1-1.21,10.83,9.85,9.85,0,0,1-8.14,4.4Z"/><path class="cls-8" d="M265.72,348.88s-40.73,10-55,26.22-20.92,96-21.2,110.74,10,20.93,16.18,25.11,33.2,11.72,55,12.83,42.4,0,42.4,0-.07-4.74,3.27-11.71c3.11-6.47,7.05-7.82,7.05-7.82l-18.69-6.69s-3.28-58.64-8.37-87C280.5,377.89,265.72,348.88,265.72,348.88Z"/><path class="cls-8" d="M333.22,488.19a.66.66,0,0,1-.27-.06.67.67,0,0,1-.34-.89c3.81-8.61,7.77-25.51,10-37.37l.19-.95c.67-3.49,1.51-7.83-.17-10.82-.85-1.53-2.78-4.85-4.63-8s-3.74-6.43-4.24-7.37c-1-1.82,2.11-6.68,6.58-13.35,1.21-1.81,2.26-3.36,2.87-4.42,1.59-2.76.53-5.29-.7-8.22l-.42-1c-1.11-2.74-2.38-5.48-3.61-8.13-.5-1.08-1-2.17-1.49-3.26-.66-1.44-1.31-2.91-2-4.39-3.94-8.79-8-17.87-13.24-26.65a.68.68,0,0,1,.24-.93.67.67,0,0,1,.92.24c5.26,8.84,9.35,18,13.31,26.79.67,1.48,1.32,2.94,2,4.39.49,1.08,1,2.16,1.49,3.25,1.23,2.66,2.5,5.42,3.63,8.18l.41,1c1.26,3,2.56,6.07.62,9.41-.63,1.1-1.68,2.67-2.91,4.5-2.33,3.48-7.19,10.72-6.52,12,.5.92,2.31,4,4.23,7.33s3.79,6.52,4.64,8.05c1.92,3.42,1,8,.31,11.73l-.18.95c-.81,4.32-5.11,26.43-10.09,37.67A.68.68,0,0,1,333.22,488.19Z"/><path class="cls-8" d="M293.47,490.56a.65.65,0,0,1-.48-.2c-3.17-3.19-18.45-29.66-19.59-34.64-.62-2.72.94-9.63,2.45-16.32,1.17-5.18,2.39-10.53,2-12-.51-2.17-4.42-5.36-8.2-8.45-4.57-3.73-9.29-7.59-10.2-11.06-1-4-.16-28.67.43-45,.21-5.88.38-10.53.38-12.19A.67.67,0,0,1,261,350h0a.67.67,0,0,1,.68.67c0,1.68-.17,6.34-.38,12.24-.55,15.29-1.47,40.88-.48,44.64.8,3.05,5.56,6.93,9.75,10.36s8,6.57,8.66,9.18c.42,1.75-.72,6.77-2,12.59-1.41,6.23-3,13.3-2.46,15.72,1.12,4.88,16.13,30.86,19.24,34a.69.69,0,0,1,0,1A.68.68,0,0,1,293.47,490.56Z"/><path class="cls-8" d="M238.66,479h-.1a.68.68,0,0,1-.57-.76c.5-3.51,8.23-73.35,8.59-78.7a.67.67,0,1,1,1.34.09c-.35,5.36-8.1,75.29-8.59,78.8A.69.69,0,0,1,238.66,479Z"/><path class="cls-8" d="M294.17,498a.69.69,0,0,1-.25,0c-1.72-.7-9.29-3.26-18.89-6.49-19.35-6.53-45.87-15.47-50.91-18.09a.68.68,0,0,1-.29-.91.67.67,0,0,1,.91-.28c4.95,2.57,32.5,11.86,50.72,18,9.62,3.25,17.21,5.81,19,6.51a.68.68,0,0,1,.37.88A.66.66,0,0,1,294.17,498Z"/><path class="cls-8" d="M284.86,525.76c-17,0-50.07-3.07-75.16-11.94a.68.68,0,0,1-.41-.86.67.67,0,0,1,.86-.41c31.7,11.21,76,13.12,84.29,11.27a.68.68,0,0,1,.3,1.32A54.08,54.08,0,0,1,284.86,525.76Z"/><path class="cls-10" d="M89.86,358.29c5.29,4.65,12,7.63,16.62,13,1.83,2.12,3.47,4.37,5.17,6.59,1.23,1.61,4.53,4.29,5.06,6.32.24.9.19-.31,0-1.21,0,0,0-.07,0-.11-.46-4.11-.8-8.24-.94-12.38s.11-8.26-.15-12.38c-.36-5.81-2.17-11.43-6.92-15.07-2.32-1.78-5.31-2.86-7.44-4.84s-1.21-4,0-6.11,2.46-3.88,2.9-6.13c.49-2.56-.47-5.2-1.77-7.38-2.76-4.63-8.89-9.8-14.69-9.11-4.84.58-5.39,6.16-5.32,10.05s.44,7.55.48,11.33-.62,7.7-.68,11.57C82,349,85,354,89.86,358.29Z"/><path class="cls-10" d="M139,418.66a62.13,62.13,0,0,1,5.24-10c2.85-4.38,6-8.65,7.92-13.56s1.67-10.36,1.86-15.64c.14-3.88,1.3-7.74,1-11.63-.15-1.87-1.23-4.88-3.64-4.57-1.88.24-3,2.56-3.71,4.05a72,72,0,0,0-3.07,8.07c-.36,1.07-.71,2.15-1.17,3.17-.27.6-1.13,2.06-1.93,1.86-1.37-.34-.13-5.94.08-6.93,1-5,2.56-9.6,2.77-14.72.32-7.43-.26-16.27-7.53-20.33-1.89-1.06-4.3-1.69-6.1-.11s-2.29,4.29-2.55,6.52c-.81,6.86.8,13.35,3,19.81,1.82,5.32,4,10.82,4.14,16.52.15,5.48-2.71,10.35-4.05,15.53a49.15,49.15,0,0,0-1.7,15.31c0,3.35.11,6.66.35,10,.23,3.07.5,6.14.87,9.2.08.62.15,1.26.23,1.91-1.18-2.84-1.59-6.1-2.57-8.95-1.74-5.08-3.75-10.05-5.42-15.15a125.69,125.69,0,0,0-4.49-12.5c-1.71-3.8-3.77-7.82-7-10.61a10.15,10.15,0,0,0-6.82-2.65,18.43,18.43,0,0,0-4.69,1,5.3,5.3,0,0,1-5-.89c-5.2-4-6.79-11.17-10.64-16.24-2.87-3.78-9.69-10.22-14.71-6.1-2.66,2.18-3.39,6.41-3.25,9.65.17,4.06,2,7.78,4.06,11.17,2.25,3.62,5.15,6.85,7.22,10.56a11.28,11.28,0,0,1,1.22,6.78c-.18,2.33-.39,4.58.41,6.83,2.39,6.76,9.84,5.82,15.63,6a43.18,43.18,0,0,1,12.26,2,13.59,13.59,0,0,1,8.93,8.79c1.15,3.19,1.77,6.8,3.94,9.51a10.2,10.2,0,0,0,3.85,2.87c2.26,1,9.15,1.43,9.2.8.17-2.1,1.17-4.33,1.8-6.33C136.1,425.94,137.48,422.29,139,418.66Z"/><path class="cls-10" d="M171,417.39c-.59-3.86-.48-8.12-2.31-11.66a.52.52,0,0,0-.71-.19c-1.31.73-1.37,2.84-1.47,4.14-.18,2.15-.05,4.31-.31,6.46a48.64,48.64,0,0,1-2.7,11.21c-1.53,4-4.33,6.29-8.39,7.55-2.6.81-5.16,1.51-7.34,3.24a15.34,15.34,0,0,0-4.3,5.94c-2.71,6.07-4,12.86-5.26,19.36-.85,4.37-1.54,8.76-2.6,13.08a129.54,129.54,0,0,0-2.81,13.05c-.1.22-.21.44-.3.67-.28.66.75,1,1.11.47,4.19-6.45,9.29-12.24,16.25-15.79,3.15-1.6,7.33-1.94,10-4.46,2-1.92,2.27-4.84,2-7.45-.39-3.42-2-6.24-3.74-9.16-.94-1.61-2.05-3.33-1.67-5.27s1.88-3.19,3.4-4.14c2.89-1.79,6.28-2.6,8.65-5.19a14.19,14.19,0,0,0,3.66-8.64C172.4,426.29,171.66,421.66,171,417.39Z"/><path class="cls-10" d="M113.87,439.65a55.58,55.58,0,0,0-13.17-12.2c-2.68-1.78-9-5.29-10.28,0-.74,3.08,2.26,6.1,4.25,8,3,2.9,6.42,5.4,8.93,8.74-3.11,1-6.36,1.18-9.06,3.33-3.2,2.55-4.64,7.46-1.47,10.58a20.46,20.46,0,0,0,5.52,3.39c2.51,1.21,5.06,2.31,7.62,3.38,5.54,2.31,11.15,4.66,15.87,8.45s9.34,10.39,9.72,16.69c0,.6-.19.05.17-.22.19.18.85-.14.85-.49a66.55,66.55,0,0,0-5.6-26.82A111.93,111.93,0,0,0,113.87,439.65Z"/><path class="cls-11" d="M101.11,352.62c2,4.23,4.17,8.37,6.43,12.49a100.81,100.81,0,0,1,6,12.16c2,5.22,4.11,10.36,6.23,15.53a152.62,152.62,0,0,1,5.76,16.45A195.43,195.43,0,0,1,132,442.7a138.79,138.79,0,0,1,.68,17.3c-.13,4.5-.64,9-1.06,13.45a79.72,79.72,0,0,0-.37,14.07c.33,3.92,1,8.57,4,11.37a.7.7,0,0,0,1.09-.84c-3.61-7.41-3.41-15.48-2.72-23.51.38-4.43.91-8.84,1.06-13.29a133.49,133.49,0,0,0-.56-17A200.68,200.68,0,0,0,128,411.49a149.55,149.55,0,0,0-5.38-16.22c-2.1-5.31-4.53-10.49-6.56-15.83-3.69-9.66-9.3-18.23-14.26-27.24-.26-.46-.94-.05-.71.42Z"/><path class="cls-11" d="M132.2,431.63c.58-7,1.21-13.81,3.58-20.52,1.11-3.13,2.45-6.18,3.52-9.32.88-2.6,2.2-6.16,1.52-8.92a.32.32,0,0,0-.61,0c-.46,1.58-.41,3.31-.73,4.92a43.61,43.61,0,0,1-1.24,4.65c-1,3.25-2.4,6.37-3.58,9.57a47.38,47.38,0,0,0-2.94,19.62.24.24,0,1,0,.48,0Z"/><path class="cls-11" d="M91.42,391.19c2.8,6.75,11.19,7.14,17.31,8.65,4.37,1.08,7.59,4,9.91,7.78a59.64,59.64,0,0,1,5.65,13.61s.1,0,.09,0c-1.72-8.09-4.17-17.83-12.5-21.59-6.68-3-15.49-1.5-19.76-8.72-.21-.35-.86-.12-.7.29Z"/><path class="cls-11" d="M127.79,430.57c.33.44.63.91,1,1.35a3.5,3.5,0,0,0,.55.6,1.34,1.34,0,0,0,.78.4.17.17,0,0,0,.14-.25,2.3,2.3,0,0,0-.58-.54l-.6-.53c-.39-.37-.74-.77-1.13-1.15-.07-.07-.21,0-.14.12Z"/><path class="cls-11" d="M110.32,452a68.14,68.14,0,0,1,12.79,13.76,83.34,83.34,0,0,1,4.66,7.67,84.44,84.44,0,0,1,3.77,8.88c.09.23.51.23.48-.06-.67-6.35-4.69-11.79-7.91-17.07a40.67,40.67,0,0,0-6-7.24,53.58,53.58,0,0,0-7.37-6.5c-.33-.23-.75.3-.43.56Z"/><path class="cls-11" d="M148.69,444.5c-2.33,1.32-2.4,5-2.45,7.32-.08,4.5,1,8.72-.94,13-1.79,3.87-4.63,7.1-6.87,10.69-2.1,3.37-4.17,7.67-4.12,11.72,0,.23.36.36.47.13a48.8,48.8,0,0,0,1.75-5.86,24.76,24.76,0,0,1,2.86-6c2.16-3.34,4.8-6.37,6.55-10,1.84-3.79,1.57-7.54,1.45-11.64-.08-2.61-.34-6.81,1.77-8.76.33-.3-.09-.82-.47-.61Z"/><path class="cls-5" d="M133.17,487.66c-9.35-.13-27.15-.24-27.15-.24l4.4,32.72A14.84,14.84,0,0,0,125.12,533h16.1a14.83,14.83,0,0,0,14.69-12.85l4.41-32.72S142.52,487.53,133.17,487.66Z"/><polygon class="cls-12" points="584.98 427.54 531.65 533.17 376.18 534.29 424.16 426.06 584.98 427.54"/><path class="cls-13" d="M273,533.63l0-8.45H373.67L420,423.64H580.93l4.05,3.9H427.74l-48.12,106S273,533.35,273,533.63Z"/><path class="cls-13" d="M504.25,485.83c-1.76,5.27-11.29,9.34-21.3,9.09s-16.68-4.73-14.93-10,11.29-9.34,21.29-9.09S506,480.56,504.25,485.83Z"/><path class="cls-5" d="M379.62,534.22a.71.71,0,0,1-.28-.06.66.66,0,0,1-.33-.89l48.3-106.4H585a.68.68,0,0,1,0,1.35H428.18l-47.94,105.6A.69.69,0,0,1,379.62,534.22Z"/><rect class="cls-14" x="81.05" y="541.63" width="184.94" height="41.01"/><rect class="cls-15" x="264.94" y="541.63" width="332.75" height="41.01"/><polygon class="cls-16" points="266 541.63 264.94 541.63 81.05 541.63 81.05 549.17 264.94 549.17 266 549.17 597.69 549.17 597.69 541.63 266 541.63"/><rect class="cls-17" x="72.12" y="533.54" width="201.96" height="10.04"/><rect class="cls-18" x="273.03" y="533.54" width="332.75" height="10.04"/><rect class="cls-5" x="146.7" y="271.18" width="79.92" height="47.23" rx="5.43" ry="5.43"/><polygon class="cls-5" points="245.22 294.79 220.7 284.44 220.7 305.13 245.22 294.79"/><circle class="cls-4" cx="171.17" cy="294.79" r="4.52"/><circle class="cls-4" cx="186.66" cy="294.79" r="4.52"/><circle class="cls-4" cx="202.15" cy="294.79" r="4.52"/><path class="cls-3" d="M566.69,102.91H416a17.53,17.53,0,0,0-17.53,17.53v71.5A17.53,17.53,0,0,0,416,209.47h13.51c.38,6.48-.55,16.12-6,28.45a75.74,75.74,0,0,0,32.68-28.45h110.5a17.53,17.53,0,0,0,17.53-17.53v-71.5A17.53,17.53,0,0,0,566.69,102.91Z"/><path class="cls-5" d="M502.39,137H427.63a3.73,3.73,0,0,1-3.72-3.72h0a3.72,3.72,0,0,1,3.72-3.72h74.76a3.72,3.72,0,0,1,3.72,3.72h0A3.73,3.73,0,0,1,502.39,137Z"/><path class="cls-19" d="M556,158.65H426.19a2.28,2.28,0,0,1-2.28-2.28h0a2.28,2.28,0,0,1,2.28-2.27H556a2.28,2.28,0,0,1,2.28,2.27h0A2.28,2.28,0,0,1,556,158.65Z"/><path class="cls-19" d="M556,171.3H426.19a2.28,2.28,0,0,1-2.28-2.28h0a2.28,2.28,0,0,1,2.28-2.28H556a2.28,2.28,0,0,1,2.28,2.28h0A2.28,2.28,0,0,1,556,171.3Z"/><path class="cls-19" d="M527.68,184.78H426.19a2.28,2.28,0,0,1-2.28-2.28h0a2.28,2.28,0,0,1,2.28-2.28H527.68A2.28,2.28,0,0,1,530,182.5h0A2.28,2.28,0,0,1,527.68,184.78Z"/><path class="cls-5" d="M555,137H519.31a3.73,3.73,0,0,1-3.72-3.72h0a3.72,3.72,0,0,1,3.72-3.72H555a3.71,3.71,0,0,1,3.71,3.72h0A3.72,3.72,0,0,1,555,137Z"/><rect class="cls-5" x="406.9" y="336.37" width="45.89" height="33.06" rx="2" ry="2"/><path class="cls-17" d="M430.12,357.84a1,1,0,0,1-.64-.23l-22-18.2a1,1,0,0,1-.13-1.43,1,1,0,0,1,1.42-.13l21.38,17.65,20.83-18.12a1,1,0,0,1,1.33,1.52l-21.48,18.69A1,1,0,0,1,430.12,357.84Z"/><path class="cls-17" d="M408.09,368.67a1,1,0,0,1-.7-.27,1,1,0,0,1,0-1.43l15.42-16.21a1,1,0,0,1,1.46,1.4l-15.41,16.2A1,1,0,0,1,408.09,368.67Z"/><path class="cls-17" d="M451.6,368.08a1,1,0,0,1-.71-.3l-15.35-15.39a1,1,0,0,1,0-1.43,1,1,0,0,1,1.43,0l15.35,15.4a1,1,0,0,1,0,1.43A1,1,0,0,1,451.6,368.08Z"/><rect class="cls-4" x="506.34" y="307.22" width="89.82" height="23.15" rx="4" ry="4"/><path class="cls-5" d="M517.44,324.86a1.06,1.06,0,0,1-.85-.37,1.29,1.29,0,0,1-.29-.95l.35-3c0-.08,0-.13,0-.15s-.12,0-.19,0L514,322.21a1.17,1.17,0,0,1-1,.25,1.21,1.21,0,0,1-.79-.59,1.18,1.18,0,0,1-.14-1.07,1.25,1.25,0,0,1,.71-.64l2.77-1.25c.07,0,.11-.06.11-.12s0-.08-.11-.11l-2.77-1.25a1.12,1.12,0,0,1-.69-.72,1.24,1.24,0,0,1,.12-1,1.21,1.21,0,0,1,.79-.59,1.26,1.26,0,0,1,1,.21l2.47,1.82c.07,0,.14.07.19,0s.06-.08,0-.15l-.35-3a1.26,1.26,0,0,1,.31-.95,1.18,1.18,0,0,1,.91-.38,1.13,1.13,0,0,1,1.14,1.33l-.34,3c0,.07,0,.13,0,.15s.12,0,.19,0l2.47-1.78a1.2,1.2,0,0,1,1-.25,1.11,1.11,0,0,1,.78.59,1.16,1.16,0,0,1,.13,1.06,1.24,1.24,0,0,1-.7.65l-2.77,1.25c-.08,0-.12.06-.12.11s0,.09.12.12l2.77,1.25a1.18,1.18,0,0,1,.7.72,1.14,1.14,0,0,1-.13,1,1.11,1.11,0,0,1-.78.59,1.3,1.3,0,0,1-1-.21l-2.47-1.82c-.07-.05-.14-.07-.19,0s-.06.07,0,.15l.34,3a1.11,1.11,0,0,1-.29.95A1.23,1.23,0,0,1,517.44,324.86Z"/><path class="cls-5" d="M533.79,324.86a1.06,1.06,0,0,1-.85-.37,1.29,1.29,0,0,1-.29-.95l.34-3q0-.12,0-.15a.18.18,0,0,0-.19,0l-2.47,1.78a1.17,1.17,0,0,1-.95.25,1.22,1.22,0,0,1-.8-.59,1.18,1.18,0,0,1-.13-1.07,1.23,1.23,0,0,1,.7-.64l2.77-1.25c.08,0,.12-.06.12-.12s0-.08-.12-.11l-2.77-1.25a1.13,1.13,0,0,1-.68-.72,1.28,1.28,0,0,1,.11-1,1.22,1.22,0,0,1,.8-.59,1.26,1.26,0,0,1,.95.21l2.47,1.82a.18.18,0,0,0,.19,0s.06-.08,0-.15l-.34-3a1.26,1.26,0,0,1,.31-.95,1.16,1.16,0,0,1,.91-.38,1.14,1.14,0,0,1,.87.38,1.1,1.1,0,0,1,.26.95l-.34,3c0,.07,0,.13,0,.15s.12,0,.19,0l2.47-1.78a1.2,1.2,0,0,1,1-.25,1.07,1.07,0,0,1,.77.59,1.13,1.13,0,0,1,.13,1.06,1.18,1.18,0,0,1-.7.65l-2.77,1.25c-.07,0-.11.06-.11.11s0,.09.11.12l2.77,1.25a1.16,1.16,0,0,1,.7.72,1.28,1.28,0,0,1-.9,1.58,1.29,1.29,0,0,1-1-.21l-2.47-1.82c-.07-.05-.14-.07-.19,0s-.06.07,0,.15l.34,3a1.08,1.08,0,0,1-.28.95A1.23,1.23,0,0,1,533.79,324.86Z"/><path class="cls-5" d="M550.14,324.86a1.08,1.08,0,0,1-.86-.37,1.29,1.29,0,0,1-.28-.95l.34-3c0-.08,0-.13,0-.15s-.11,0-.19,0l-2.46,1.78a1.18,1.18,0,0,1-.95.25,1.2,1.2,0,0,1-.8-.59,1.15,1.15,0,0,1-.13-1.07,1.23,1.23,0,0,1,.7-.64l2.77-1.25c.08,0,.11-.06.11-.12s0-.08-.11-.11l-2.77-1.25a1.13,1.13,0,0,1-.68-.72,1.24,1.24,0,0,1,.11-1,1.2,1.2,0,0,1,.8-.59,1.27,1.27,0,0,1,.95.21l2.46,1.82c.08,0,.14.07.19,0s.07-.08,0-.15l-.34-3a1.26,1.26,0,0,1,.3-.95,1.18,1.18,0,0,1,.91-.38,1.14,1.14,0,0,1,.88.38,1.16,1.16,0,0,1,.26.95l-.34,3c0,.07,0,.13,0,.15s.11,0,.19,0l2.46-1.78a1.21,1.21,0,0,1,1-.25,1.11,1.11,0,0,1,.78.59,1.13,1.13,0,0,1,.13,1.06,1.21,1.21,0,0,1-.7.65l-2.77,1.25c-.07,0-.11.06-.11.11s0,.09.11.12l2.77,1.25a1.18,1.18,0,0,1,.7.72,1.28,1.28,0,0,1-.91,1.58,1.31,1.31,0,0,1-1-.21l-2.46-1.82c-.08-.05-.14-.07-.19,0s-.07.07,0,.15l.34,3a1.11,1.11,0,0,1-.28.95A1.23,1.23,0,0,1,550.14,324.86Z"/><path class="cls-5" d="M566.49,324.86a1.08,1.08,0,0,1-.86-.37,1.29,1.29,0,0,1-.28-.95l.34-3c0-.08,0-.13,0-.15s-.11,0-.19,0L563,322.21a1.16,1.16,0,0,1-.94.25,1.2,1.2,0,0,1-.8-.59,1.15,1.15,0,0,1-.13-1.07,1.2,1.2,0,0,1,.7-.64l2.77-1.25c.07,0,.11-.06.11-.12s0-.08-.11-.11l-2.77-1.25a1.12,1.12,0,0,1-.69-.72,1.24,1.24,0,0,1,.12-1,1.2,1.2,0,0,1,.8-.59,1.25,1.25,0,0,1,.94.21l2.47,1.82c.08,0,.14.07.19,0s.06-.08,0-.15l-.34-3a1.22,1.22,0,0,1,.3-.95,1.18,1.18,0,0,1,.91-.38,1.11,1.11,0,0,1,.87.38,1.13,1.13,0,0,1,.27.95l-.34,3c0,.07,0,.13,0,.15s.11,0,.19,0l2.46-1.78a1.2,1.2,0,0,1,1-.25,1.11,1.11,0,0,1,.78.59,1.16,1.16,0,0,1,.13,1.06,1.21,1.21,0,0,1-.7.65l-2.77,1.25c-.08,0-.12.06-.12.11s0,.09.12.12l2.77,1.25a1.18,1.18,0,0,1,.7.72,1.14,1.14,0,0,1-.13,1,1.11,1.11,0,0,1-.78.59,1.3,1.3,0,0,1-1-.21l-2.46-1.82c-.08-.05-.14-.07-.19,0s-.07.07,0,.15l.34,3a1.08,1.08,0,0,1-.29.95A1.22,1.22,0,0,1,566.49,324.86Z"/><path class="cls-20" d="M582.83,324.86a1.06,1.06,0,0,1-.85-.37,1.29,1.29,0,0,1-.29-.95l.35-3c0-.08,0-.13,0-.15s-.12,0-.19,0l-2.47,1.78a1.17,1.17,0,0,1-1,.25,1.18,1.18,0,0,1-.79-.59,1.15,1.15,0,0,1-.14-1.07,1.26,1.26,0,0,1,.7-.64l2.77-1.25c.08,0,.12-.06.12-.12s0-.08-.12-.11l-2.77-1.25a1.13,1.13,0,0,1-.68-.72,1.24,1.24,0,0,1,.12-1,1.18,1.18,0,0,1,.79-.59,1.26,1.26,0,0,1,1,.21l2.47,1.82c.07,0,.14.07.19,0s.06-.08,0-.15l-.35-3a1.26,1.26,0,0,1,.31-.95,1.18,1.18,0,0,1,.91-.38,1.13,1.13,0,0,1,1.14,1.33l-.34,3c0,.07,0,.13,0,.15s.12,0,.19,0l2.47-1.78a1.2,1.2,0,0,1,1-.25,1.07,1.07,0,0,1,.77.59,1.14,1.14,0,0,1,.14,1.06,1.23,1.23,0,0,1-.71.65l-2.76,1.25c-.08,0-.12.06-.12.11s0,.09.12.12l2.76,1.25a1.2,1.2,0,0,1,.71.72,1.11,1.11,0,0,1-.14,1,1.07,1.07,0,0,1-.77.59,1.3,1.3,0,0,1-1-.21l-2.47-1.82c-.07-.05-.14-.07-.19,0s-.06.07,0,.15l.34,3a1.11,1.11,0,0,1-.29.95A1.23,1.23,0,0,1,582.83,324.86Z"/></g></g></g></svg>